<svg width="32" height="32" viewBox="0 0 32 32" fill="none" xmlns="http://www.w3.org/2000/svg">
<g clip-path="url(#clip0_13890_1910)">
<mask id="mask0_13890_1910" style="mask-type:luminance" maskUnits="userSpaceOnUse" x="0" y="0" width="32" height="32">
<path d="M31.1914 0.191406H0.191406V31.1914H31.1914V0.191406Z" fill="white"/>
</mask>
<g mask="url(#mask0_13890_1910)">
<path d="M15.6872 0.191406V15.6914L8.92665 8.92889C8.29832 8.29551 7.94381 7.44063 7.93945 6.54835V0.191406H15.6872Z" fill="white"/>
<path d="M31.1919 15.6917H15.6875L22.4569 8.92924C22.7723 8.61057 23.1488 8.35886 23.5638 8.18919C23.9788 8.01951 24.4238 7.93535 24.872 7.94175H31.2272L31.1919 15.6917Z" fill="white"/>
<path d="M15.6875 31.1914V15.6914L22.4481 22.4627C22.7671 22.778 23.019 23.1545 23.1886 23.5697C23.3583 23.9848 23.4422 24.4301 23.4353 24.8785V31.2355L15.6875 31.1914Z" fill="white"/>
<path d="M0.191406 15.6914H15.687L8.92641 22.4539C8.29538 23.0857 7.43934 23.4409 6.54654 23.4414H0.191406V15.6914Z" fill="white"/>
</g>
</g>
<defs>
<clipPath id="clip0_13890_1910">
<rect width="31" height="31" fill="white" transform="translate(0.191406 0.191406)"/>
</clipPath>
</defs>
</svg>
