<svg width="24" height="25" viewBox="0 0 24 25" fill="none" xmlns="http://www.w3.org/2000/svg">
<g clip-path="url(#clip0_11092_201)">
<path d="M19 9.5L20.25 6.75L23 5.5L20.25 4.25L19 1.5L17.75 4.25L15 5.5L17.75 6.75L19 9.5ZM11.5 10L9 4.5L6.5 10L1 12.5L6.5 15L9 20.5L11.5 15L17 12.5L11.5 10ZM19 15.5L17.75 18.25L15 19.5L17.75 20.75L19 23.5L20.25 20.75L23 19.5L20.25 18.25L19 15.5Z" fill="#02140D"/>
</g>
<defs>
<clipPath id="clip0_11092_201">
<rect width="24" height="24" fill="white" transform="translate(0 0.5)"/>
</clipPath>
</defs>
</svg>
