<svg width="48" height="48" viewBox="0 0 48 48" fill="none" xmlns="http://www.w3.org/2000/svg">
<path d="M19.2509 14.6763C18.2733 16.1548 15.9995 18.2777 15.9995 20C15.9995 21.9945 18.1247 26.0107 20.8849 28.7368C23.645 31.4629 25.9801 33 27.9995 33C29.3742 33 30.0651 29.6842 33.7372 29.6842C36.4913 29.6842 39.9995 32.6842 40.9995 36C41.5728 37.9012 39.3273 39.6176 36.8092 40.8125C34.8349 41.7494 32.6215 42.0863 30.4462 41.877C26.4733 41.4948 20.8088 39.9246 13.9995 33.4737C6.19643 25 5.80247 19.4488 5.99946 14.0277C6.19644 8.60665 10.9995 6 12.6226 6C14.1285 6 18.8483 10.0769 19.5227 13.2938C19.6232 13.773 19.5209 14.2679 19.2509 14.6763Z" fill="white"/>
<path fill-rule="evenodd" clip-rule="evenodd" d="M28.1872 13.3976C28.1987 13.3964 28.2205 13.3945 28.2554 13.392C28.3252 13.387 28.4392 13.3814 28.59 13.3822C28.8924 13.3839 29.3363 13.4116 29.8645 13.5201C30.9146 13.7356 32.2957 14.2681 33.5906 15.5631C34.8856 16.8581 35.4181 18.2392 35.6337 19.2893C35.7422 19.8175 35.7699 20.2614 35.7716 20.5638C35.7724 20.7145 35.7667 20.8285 35.7618 20.8984C35.7593 20.9332 35.757 20.9569 35.7557 20.9684C35.7558 20.9678 35.7563 20.9653 37.1433 21.156L35.7563 20.9653C35.7559 20.9686 35.7554 20.9719 35.755 20.9752C35.755 20.9752 35.755 20.9752 35.755 20.9752C35.6556 21.7374 36.1899 22.4381 36.9526 22.5429C37.7186 22.6482 38.4249 22.1126 38.5302 21.3466L37.1916 21.1626C38.5302 21.3466 38.5301 21.3473 38.5302 21.3466L38.531 21.3407L38.532 21.3335L38.5343 21.3151L38.5402 21.2626C38.5446 21.2209 38.5498 21.1656 38.5546 21.0979C38.5643 20.9625 38.5728 20.7766 38.5715 20.5484C38.569 20.0929 38.5277 19.4626 38.3765 18.7262C38.0729 17.2471 37.324 15.3367 35.5705 13.5832C33.817 11.8297 31.9067 11.0809 30.4276 10.7773C29.6912 10.6261 29.0609 10.5848 28.6054 10.5822C28.3772 10.581 28.1912 10.5895 28.0559 10.5991C27.9881 10.604 27.9329 10.6091 27.8912 10.6135L27.8387 10.6195L27.8203 10.6218L27.8131 10.6227L27.81 10.6232C27.8093 10.6233 27.8072 10.6235 27.9978 12.0105L27.8072 10.6235C27.0412 10.7288 26.5056 11.4351 26.6109 12.2011C26.7157 12.9639 27.4164 13.4981 28.1786 13.3988" fill="white"/>
<path fill-rule="evenodd" clip-rule="evenodd" d="M28.0755 5.40822C27.3064 5.45044 26.6471 4.86306 26.6014 4.09338C26.5555 3.32155 27.144 2.65866 27.9158 2.61279L27.9989 4.01032C27.9158 2.61279 27.9151 2.61283 27.9158 2.61279L27.9188 2.61261L27.9223 2.61241L27.9309 2.61196L27.9543 2.61085C27.9727 2.61004 27.9966 2.60915 28.0257 2.60835C28.0841 2.60676 28.1637 2.60556 28.2631 2.60627C28.4618 2.6077 28.74 2.61677 29.0856 2.64578C29.7764 2.70376 30.7399 2.84167 31.8775 3.15915C34.1587 3.79574 37.131 5.15253 39.9889 8.01035C42.8467 10.8682 44.2016 13.8387 44.836 16.1183C45.1524 17.2552 45.2892 18.2179 45.3463 18.908C45.3749 19.2533 45.3836 19.5313 45.3847 19.7299C45.3853 19.8292 45.384 19.9088 45.3823 19.9671C45.3815 19.9963 45.3805 20.0201 45.3797 20.0385L45.3786 20.062L45.3781 20.0705L45.3779 20.0741C45.3779 20.0748 45.3777 20.077 43.9803 19.9917L45.3777 20.077C45.3306 20.8488 44.6668 21.4362 43.895 21.3891C43.1254 21.3422 42.5391 20.682 42.5825 19.913L42.5835 19.8865C42.5843 19.8593 42.5852 19.812 42.5848 19.746C42.584 19.614 42.5781 19.4078 42.5559 19.1389C42.5113 18.6005 42.4016 17.8142 42.1386 16.8691C41.6141 14.9848 40.4782 12.4595 38.009 9.99024C35.5396 7.52091 33.012 6.38272 31.1249 5.85611C30.1785 5.59199 29.3908 5.48124 28.8514 5.43597C28.582 5.41335 28.3754 5.40715 28.243 5.4062C28.1769 5.40573 28.1294 5.40657 28.1021 5.40731L28.0755 5.40822ZM28.0755 5.40822C28.0755 5.40822 28.0755 5.40822 28.0755 5.40822V5.40822Z" fill="white"/>
</svg>
