<svg width="24" height="25" viewBox="0 0 24 25" fill="none" xmlns="http://www.w3.org/2000/svg">
<path d="M23.3409 13.4639H15.0231C14.6596 13.4639 14.3633 13.7602 14.3633 14.1236C14.3633 14.3088 14.442 14.4755 14.5646 14.5958L20.4216 20.4528C20.5419 20.5825 20.7157 20.6636 20.9056 20.6636C21.1347 20.6636 21.3361 20.5478 21.4542 20.3718C22.8941 18.7004 23.8202 16.5775 23.9869 14.2416C23.9962 14.2023 24.0008 14.163 24.0008 14.1236C24.0008 13.7602 23.7067 13.4639 23.3409 13.4639Z" fill="#532E07"/>
<path d="M12.511 1.50684C12.1475 1.50906 11.8535 1.80316 11.8535 2.1666V11.4105C11.8535 11.7763 12.1475 12.0726 12.511 12.0726H21.7572C22.1208 12.0726 22.417 11.7763 22.417 11.4105C22.0905 6.09067 17.8332 1.83331 12.511 1.50684Z" fill="#532E07"/>
<path d="M17.5919 19.9139L10.7719 13.0938C10.6562 12.9758 10.5868 12.8114 10.5868 12.6331L10.5843 3.00024C10.5843 2.6368 10.2904 2.34277 9.92684 2.34277C4.387 2.6808 0 7.28301 0 12.9063C0 18.7518 4.73896 23.493 10.5843 23.493C13.2512 23.493 15.6866 22.5068 17.5479 20.8792C17.6915 20.7588 17.7818 20.5783 17.7818 20.3769C17.7818 20.1986 17.7099 20.0342 17.5919 19.9139Z" fill="#532E07"/>
</svg>
