<svg width="24" height="25" viewBox="0 0 24 25" fill="none" xmlns="http://www.w3.org/2000/svg">
<path d="M20.6365 15.4581C20.615 15.4535 20.6 15.4351 20.6 15.4131V9.5864C20.6 9.56442 20.615 9.54599 20.6365 9.54143C21.4729 9.36493 22.1017 8.62184 22.1017 7.73341C22.1017 6.71514 21.2721 5.88599 20.2543 5.88599C19.7091 5.88599 19.2192 6.12335 18.8823 6.50039C18.8677 6.51681 18.8441 6.5206 18.825 6.50956L13.7767 3.59533C13.7577 3.58434 13.7492 3.56212 13.756 3.54124C14.1408 2.36298 13.2668 1.12012 11.9991 1.12012C10.7499 1.12012 9.85292 2.34234 10.2449 3.54119C10.2517 3.56207 10.2433 3.58429 10.2242 3.59528L5.17584 6.5097C5.15684 6.52069 5.13336 6.51695 5.11868 6.50063C4.77922 6.12349 4.28924 5.88604 3.74386 5.88604C2.72612 5.88604 1.89648 6.71514 1.89648 7.73346C1.89648 8.62189 2.52797 9.36493 3.36447 9.54148C3.38597 9.54599 3.40095 9.56447 3.40095 9.58645V15.4131C3.40095 15.4351 3.38597 15.4535 3.36447 15.4581C2.52797 15.6344 1.89648 16.3777 1.89648 17.2656C1.89648 18.2844 2.72616 19.1133 3.74386 19.1133C4.28919 19.1133 4.77917 18.8756 5.11868 18.4989C5.13336 18.4826 5.15679 18.4789 5.1758 18.4899L10.2242 21.4043C10.2433 21.4153 10.2517 21.4375 10.2449 21.4584C9.85296 22.659 10.7509 23.8792 11.9991 23.8792C13.2659 23.8792 14.1409 22.6383 13.7561 21.4583C13.7493 21.4375 13.7578 21.4152 13.7768 21.4043L18.8251 18.49C18.8441 18.479 18.8677 18.4827 18.8823 18.4991C19.2192 18.8757 19.7091 19.1133 20.2543 19.1133C21.2721 19.1133 22.1017 18.2845 22.1017 17.2656C22.1017 16.3776 21.4729 15.6344 20.6365 15.4581ZM19.9086 15.4131C19.9086 15.4351 19.8937 15.4535 19.8721 15.4581C19.4823 15.5401 19.1377 15.7459 18.8823 16.0322C18.8677 16.0486 18.8441 16.0524 18.825 16.0414L17.1741 15.0886C17.1512 15.0754 17.1222 15.084 17.1102 15.1075C17.0199 15.2841 16.9207 15.4555 16.8132 15.6209C16.7988 15.6431 16.8058 15.6725 16.8288 15.6857L18.4767 16.638C18.4957 16.6489 18.5042 16.6712 18.4974 16.692C18.3767 17.0633 18.3768 17.4681 18.4974 17.8392C18.5042 17.8601 18.4957 17.8823 18.4767 17.8932L13.4311 20.8073C13.4121 20.8183 13.3886 20.8146 13.374 20.7982C13.116 20.5118 12.7713 20.3062 12.3814 20.2241C12.3599 20.2196 12.3449 20.2011 12.3449 20.1791V18.2745C12.3449 18.2483 12.3234 18.2277 12.2973 18.2286C12.2967 18.2286 12.2962 18.2286 12.2956 18.2286L11.7056 18.2288C11.705 18.2288 11.7045 18.2288 11.7039 18.2288C11.6778 18.2278 11.6563 18.2485 11.6563 18.2747V20.1791C11.6563 20.2011 11.6413 20.2196 11.6197 20.2241C11.2273 20.3061 10.8826 20.5116 10.6271 20.798C10.6125 20.8144 10.5889 20.8182 10.5698 20.8072L5.52164 17.8932C5.50263 17.8822 5.49408 17.86 5.5009 17.8392C5.62157 17.4681 5.62162 17.0632 5.5009 16.6919C5.49413 16.6711 5.50263 16.6489 5.52164 16.6379L7.17024 15.6868C7.19319 15.6735 7.20024 15.6441 7.1858 15.6219C7.07832 15.4565 6.97906 15.2852 6.88872 15.1087C6.87668 15.0851 6.84773 15.0765 6.82484 15.0898L5.17584 16.0414C5.15684 16.0523 5.13336 16.0486 5.11872 16.0323C4.86077 15.7459 4.51608 15.5401 4.12613 15.4579C4.10463 15.4534 4.08965 15.4349 4.08965 15.4129V9.5864C4.08965 9.56442 4.10458 9.54599 4.12608 9.54143C4.51608 9.45887 4.86082 9.25328 5.11872 8.96682C5.13341 8.9505 5.15684 8.94681 5.17584 8.95775L6.8246 9.90978C6.84754 9.92303 6.87644 9.91444 6.88848 9.89092C6.97882 9.71437 7.07799 9.54306 7.18551 9.3777C7.19996 9.35548 7.1929 9.32605 7.16996 9.31285L5.52159 8.36159C5.50258 8.3506 5.49408 8.32842 5.50085 8.30754C5.62152 7.93645 5.62157 7.53133 5.50085 7.16001C5.49408 7.13912 5.50258 7.11695 5.52159 7.106L10.5698 4.19255C10.5889 4.18156 10.6124 4.18535 10.6271 4.20177C10.8826 4.48789 11.2273 4.69333 11.6197 4.77541C11.6413 4.77993 11.6563 4.79841 11.6563 4.82039V6.7245C11.6563 6.75076 11.6778 6.77135 11.7039 6.77044H11.7056L12.2956 6.77058H12.2973C12.3234 6.77154 12.3449 6.75085 12.3449 6.72465V4.82029C12.3449 4.79831 12.3599 4.77983 12.3814 4.77532C12.7714 4.69319 13.1161 4.48765 13.374 4.20148C13.3886 4.18521 13.4121 4.18151 13.4311 4.19245L18.4767 7.106C18.4957 7.11695 18.5042 7.13917 18.4975 7.16001C18.3768 7.53133 18.3768 7.93645 18.4975 8.30754C18.5042 8.32842 18.4957 8.3506 18.4768 8.36159L16.829 9.31396C16.8061 9.32721 16.7991 9.35658 16.8135 9.37881C16.9209 9.54421 17.0201 9.71557 17.1104 9.89217C17.1224 9.91573 17.1514 9.92428 17.1743 9.91103L18.825 8.95789C18.8441 8.9469 18.8677 8.95065 18.8823 8.96711C19.1378 9.25343 19.4824 9.45892 19.8722 9.54148C19.8937 9.54604 19.9087 9.56447 19.9087 9.58645L19.9086 15.4131ZM11.9991 7.35738C9.15912 7.35738 6.85685 9.65965 6.85685 12.4996C6.85685 15.3396 9.15912 17.6419 11.9991 17.6419C14.8391 17.6419 17.1413 15.3396 17.1413 12.4996C17.1413 9.65965 14.8391 7.35738 11.9991 7.35738ZM14.2365 11.7004L11.0845 16.1457C11.0586 16.1822 11.001 16.1638 11.001 16.1192V12.8368C11.001 12.8115 10.9803 12.7908 10.955 12.7908H9.79925C9.76186 12.7908 9.74012 12.7487 9.76172 12.7183L12.5021 8.85345C12.528 8.81697 12.5856 8.83535 12.5856 8.88004V11.5819C12.5856 11.6072 12.6062 11.6278 12.6316 11.6278H14.1989C14.2363 11.6279 14.2581 11.6699 14.2365 11.7004Z" fill="#532E07"/>
</svg>
