<svg width="32" height="32" viewBox="0 0 32 32" fill="none" xmlns="http://www.w3.org/2000/svg">
<path d="M5.46925 20C4.98279 16.8919 4.49607 13.7838 4.00909 10.6757C3.98534 10.523 4.0084 10.3668 4.07533 10.2269C4.14227 10.0871 4.25005 9.97007 4.38494 9.89065C4.51984 9.81123 4.67574 9.77307 4.83279 9.78101C4.98985 9.78895 5.14094 9.84264 5.26682 9.93524L9.81612 13.287C9.93433 13.3742 10.0694 13.4367 10.213 13.4708C10.3567 13.5049 10.5059 13.5098 10.6516 13.4853C10.7972 13.4608 10.9363 13.4074 11.0602 13.3283C11.1841 13.2492 11.2903 13.1461 11.3723 13.0253L15.1599 7.44106C15.2522 7.30535 15.3772 7.19411 15.5237 7.11718C15.6703 7.04025 15.8339 7 16 7C16.1661 7 16.3297 7.04025 16.4763 7.11718C16.6228 7.19411 16.7478 7.30535 16.8401 7.44106L20.6277 13.0221C20.7097 13.1429 20.8159 13.246 20.9398 13.3251C21.0637 13.4043 21.2028 13.4577 21.3484 13.4822C21.4941 13.5067 21.6433 13.5017 21.787 13.4676C21.9306 13.4335 22.0657 13.371 22.1839 13.2839L26.7332 9.93209C26.8591 9.83949 27.0102 9.7858 27.1672 9.77786C27.3243 9.76992 27.4802 9.80809 27.6151 9.88751C27.75 9.96692 27.8577 10.084 27.9247 10.2238C27.9916 10.3636 28.0147 10.5198 27.9909 10.6726C27.5039 13.7807 27.0172 16.8888 26.5308 19.9969L5.46925 20Z" fill="white"/>
<path d="M5 21H27V23.7484C27 23.9128 26.9703 24.0755 26.9127 24.2274C26.855 24.3792 26.7705 24.5172 26.6639 24.6334C26.5574 24.7496 26.4309 24.8418 26.2917 24.9047C26.1525 24.9676 26.0033 25 25.8526 25H6.14738C5.84308 25 5.55124 24.8681 5.33606 24.6334C5.12088 24.3987 5 24.0803 5 23.7484V21Z" fill="white"/>
</svg>
