<svg width="40" height="40" viewBox="0 0 40 40" fill="none" xmlns="http://www.w3.org/2000/svg">
<path d="M34.8682 12.6132C32.0886 11.1832 28.7817 11.4236 26.2378 13.24L20 17.6962L13.7622 13.24C11.2183 11.4236 7.90894 11.1831 5.13184 12.6132C2.3523 14.0439 0.625 16.8741 0.625 20.0003C0.625 23.1265 2.3523 25.9567 5.13184 27.3874C7.9126 28.8168 11.2183 28.5776 13.7622 26.7606L20 22.3044L26.2378 26.7605C27.6794 27.7902 29.3652 28.3133 31.062 28.3133C32.3596 28.3133 33.6646 28.0069 34.8682 27.3874C37.6477 25.9567 39.375 23.1265 39.375 20.0003C39.375 16.8741 37.6477 14.0439 34.8682 12.6132ZM11.582 23.7088C10.166 24.7208 8.39844 24.8507 6.84692 24.053C5.29908 23.2559 4.375 21.741 4.375 20.0003C4.375 18.2596 5.29908 16.7447 6.84692 15.9475C7.52075 15.6015 8.23609 15.43 8.94531 15.43C9.86816 15.43 10.7812 15.7199 11.582 16.2918L16.7737 20.0003L11.582 23.7088ZM33.1531 24.053C31.6028 24.8507 29.8352 24.7208 28.418 23.7088L23.2263 20.0003L28.418 16.2918C29.8352 15.2798 31.6028 15.1523 33.1531 15.9475C34.7009 16.7447 35.625 18.2596 35.625 20.0003C35.625 21.741 34.7009 23.2559 33.1531 24.053Z" fill="black"/>
</svg>
