<svg width="40" height="40" viewBox="0 0 40 40" fill="none" xmlns="http://www.w3.org/2000/svg">
<g clip-path="url(#clip0_13168_4615)">
<path d="M38.8281 0H34.1406C33.4929 0 32.9688 0.524141 32.9688 1.17188V2.34375H29.2969C28.6491 2.34375 28.125 2.86789 28.125 3.51562C28.125 4.16336 28.6491 4.6875 29.2969 4.6875H32.9688V5.85938C32.9688 6.50711 33.4929 7.03125 34.1406 7.03125H35.3125V10.7031C35.3125 11.3509 35.8366 11.875 36.4844 11.875C37.1321 11.875 37.6562 11.3509 37.6562 10.7031V7.03125H38.8281C39.4759 7.03125 40 6.50711 40 5.85938V1.17188C40 0.524141 39.4759 0 38.8281 0Z" fill="black"/>
<path d="M38.8281 32.9688H37.6562V29.4531C37.6562 28.8054 37.1321 28.2812 36.4844 28.2812C35.8366 28.2812 35.3125 28.8054 35.3125 29.4531V32.9688H34.1406C33.4929 32.9688 32.9688 33.4929 32.9688 34.1406V35.3125H25.7812V15.8594L13.3829 28.2812H15.2344C15.8907 28.2812 16.4062 28.7968 16.4062 29.4531C16.4062 30.1093 15.8907 30.625 15.2344 30.625H10.5469C9.91406 30.625 9.375 30.0849 9.375 29.4531V24.7656C9.375 24.1093 9.89055 23.5938 10.5469 23.5938C11.2032 23.5938 11.7188 24.1093 11.7188 24.7656V26.6171L24.1406 14.2188H4.6875V7.03125H5.85938C6.50711 7.03125 7.03125 6.50711 7.03125 5.85938V4.6875H10.5469C11.1946 4.6875 11.7188 4.16336 11.7188 3.51562C11.7188 2.86789 11.1946 2.34375 10.5469 2.34375H7.03125V1.17188C7.03125 0.524141 6.50711 0 5.85938 0H1.17188C0.524141 0 0 0.524141 0 1.17188V5.85938C0 6.50711 0.524141 7.03125 1.17188 7.03125H2.34375V30.625H5.85938C7.79797 30.625 9.375 32.202 9.375 34.1406V37.6562H32.9688V38.8281C32.9688 39.4759 33.4929 40 34.1406 40H38.8281C39.4759 40 40 39.4759 40 38.8281V34.1406C40 33.4929 39.4759 32.9688 38.8281 32.9688Z" fill="black"/>
<path d="M5.85938 32.9688H1.17188C0.524141 32.9688 0 33.4929 0 34.1406V38.8281C0 39.4759 0.524141 40 1.17188 40H5.85938C6.50711 40 7.03125 39.4759 7.03125 38.8281V34.1406C7.03125 33.4929 6.50711 32.9688 5.85938 32.9688Z" fill="black"/>
<path d="M15.2344 4.6875H17.5781C18.2259 4.6875 18.75 4.16336 18.75 3.51562C18.75 2.86789 18.2259 2.34375 17.5781 2.34375H15.2344C14.5866 2.34375 14.0625 2.86789 14.0625 3.51562C14.0625 4.16336 14.5866 4.6875 15.2344 4.6875Z" fill="black"/>
<path d="M22.2656 4.6875H24.6094C25.2571 4.6875 25.7812 4.16336 25.7812 3.51562C25.7812 2.86789 25.2571 2.34375 24.6094 2.34375H22.2656C21.6179 2.34375 21.0938 2.86789 21.0938 3.51562C21.0938 4.16336 21.6179 4.6875 22.2656 4.6875Z" fill="black"/>
<path d="M36.4844 18.9062C37.1321 18.9062 37.6562 18.3821 37.6562 17.7344V15.3906C37.6562 14.7429 37.1321 14.2188 36.4844 14.2188C35.8366 14.2188 35.3125 14.7429 35.3125 15.3906V17.7344C35.3125 18.3821 35.8366 18.9062 36.4844 18.9062Z" fill="black"/>
<path d="M35.3125 24.7656C35.3125 25.4134 35.8366 25.9375 36.4844 25.9375C37.1321 25.9375 37.6562 25.4134 37.6562 24.7656V22.4219C37.6562 21.7741 37.1321 21.25 36.4844 21.25C35.8366 21.25 35.3125 21.7741 35.3125 22.4219V24.7656Z" fill="black"/>
<path d="M25.7812 15.3906V15.8594L28.125 13.5155V15.3906C28.125 16.0384 28.6491 16.5625 29.2969 16.5625C29.9446 16.5625 30.4688 16.0384 30.4688 15.3906V10.7031C30.4694 10.0619 29.936 9.53125 29.2969 9.53125H24.6094C23.9616 9.53125 23.4375 10.0554 23.4375 10.7031C23.4375 11.3509 23.9616 11.875 24.6094 11.875H26.4844L24.1406 14.2188H24.6094C25.2657 14.2188 25.7812 14.7343 25.7812 15.3906Z" fill="black"/>
</g>
<defs>
<clipPath id="clip0_13168_4615">
<rect width="40" height="40" fill="white"/>
</clipPath>
</defs>
</svg>
