<svg width="48" height="48" viewBox="0 0 48 48" fill="none" xmlns="http://www.w3.org/2000/svg">
<path d="M41.3394 11.2316L25.8099 3.42862C24.6714 2.85712 23.3289 2.85712 22.1904 3.42862L6.66241 11.2316C5.26741 11.9321 4.40791 13.3706 4.44241 14.9321C4.58341 21.3731 6.42691 37.9961 21.2304 44.4251C22.9944 45.1916 25.0104 45.1916 26.7744 44.4251C41.5764 37.9961 43.4199 21.3731 43.5624 14.9321C43.5954 13.3706 42.7344 11.9321 41.3394 11.2316ZM31.6104 22.2356L28.9689 24.8111C28.7199 25.0541 28.6059 25.4036 28.6659 25.7456L29.2899 29.3816C29.4384 30.2441 28.5324 30.9026 27.7584 30.4946L24.4929 28.7786C24.1854 28.6166 23.8179 28.6166 23.5104 28.7786L20.2449 30.4946C19.4709 30.9011 18.5649 30.2441 18.7134 29.3816L19.3374 25.7456C19.3959 25.4036 19.2819 25.0541 19.0344 24.8111L16.3929 22.2356C15.7659 21.6251 16.1124 20.5601 16.9779 20.4341L20.6289 19.9031C20.9724 19.8536 21.2694 19.6376 21.4239 19.3256L23.0559 16.0181C23.4429 15.2336 24.5619 15.2336 24.9489 16.0181L26.5809 19.3256C26.7354 19.6376 27.0324 19.8536 27.3759 19.9031L31.0269 20.4341C31.8924 20.5601 32.2374 21.6251 31.6104 22.2356Z" fill="#063B26"/>
</svg>
