<svg width="48" height="48" viewBox="0 0 48 48" fill="none" xmlns="http://www.w3.org/2000/svg">
<path fill-rule="evenodd" clip-rule="evenodd" d="M19.8204 29.4373L24.5328 35.7205C27.3125 39.4267 28.7023 41.2798 30.3753 41.3736C30.8918 41.4026 31.4303 41.3147 31.9108 41.123C33.4672 40.5021 34.1859 38.333 35.6232 33.9949C36.5025 31.3409 37.377 28.5874 38.0636 26.1844C39.018 22.844 40.3355 18.0348 41.5243 13.6492C42.6673 9.43229 43.2389 7.32385 42.364 5.97489C42.0898 5.55226 41.7252 5.18761 41.3026 4.91349C39.9536 4.03858 37.8452 4.6101 33.6283 5.75315C29.2427 6.94192 24.4334 8.25945 21.0931 9.21383C18.69 9.90042 15.9365 10.7749 13.2826 11.6543C8.94444 13.0916 6.77536 13.8103 6.15447 15.3666C5.96276 15.8472 5.87488 16.3856 5.90385 16.9022C5.9977 18.5752 7.85078 19.965 11.5569 22.7446L17.8406 27.4573L27.1744 18.1236C27.7211 17.5768 28.6075 17.5768 29.1543 18.1236C29.701 18.6703 29.701 19.5567 29.1543 20.1035L19.8204 29.4373Z" fill="#222628"/>
</svg>
