<svg width="32" height="32" viewBox="0 0 32 32" fill="none" xmlns="http://www.w3.org/2000/svg">
<path d="M27.9355 13.0636C27.7506 12.4687 27.1982 12.0599 26.42 11.9418L20.2489 11.0044L17.4891 5.15973C17.141 4.42272 16.5983 4 16 4C15.4017 4 14.8589 4.42272 14.5109 5.15973L11.7512 11.0044L5.57998 11.9417C4.80175 12.0598 4.24942 12.4687 4.06449 13.0635C3.87961 13.6583 4.09656 14.3284 4.65958 14.902L9.1251 19.4514L8.07091 25.8755C7.9323 26.7205 8.16771 27.2258 8.38967 27.5009C8.64926 27.8227 9.02797 28 9.45604 28C9.77967 28 10.1243 27.9008 10.4803 27.7052L16 24.6721L21.5197 27.7051C21.8757 27.9007 22.2203 28 22.544 28H22.5441C22.9722 28 23.3509 27.8227 23.6105 27.5009C23.8324 27.2258 24.0679 26.7205 23.9292 25.8754L22.8749 19.4514L27.3404 14.9021C27.9035 14.3285 28.1204 13.6583 27.9355 13.0636Z" fill="#02140D"/>
</svg>
